<?xml version="1.0" standalone="no"?>
<!DOCTYPE svg PUBLIC "-//W3C//DTD SVG 20010904//EN"
 "http://www.w3.org/TR/2001/REC-SVG-20010904/DTD/svg10.dtd">
<svg version="1.0" xmlns="http://www.w3.org/2000/svg"
 width="1644.000000pt" height="1272.000000pt" viewBox="0 0 1644.000000 1272.000000"
 preserveAspectRatio="xMidYMid meet">
<metadata>
Created by potrace 1.16, written by Peter Selinger 2001-2019
</metadata>
<g transform="translate(0.000000,1272.000000) scale(0.100000,-0.100000)"
fill="#000000" stroke="none">
<path d="M4866 9969 c-21 -11 -74 -48 -118 -82 -43 -34 -105 -79 -136 -99 -31
-20 -77 -53 -102 -72 -25 -19 -75 -49 -112 -67 l-66 -32 -57 23 c-31 12 -72
23 -92 24 -32 1 -38 -3 -59 -41 -13 -23 -31 -70 -39 -105 -11 -51 -21 -69 -52
-96 -62 -54 -113 -86 -201 -127 -73 -34 -92 -39 -160 -39 -67 0 -84 3 -130 29
-55 30 -112 86 -112 109 0 21 -35 46 -85 61 -45 14 -46 14 -74 -13 -16 -15
-31 -37 -35 -49 -8 -25 20 -88 53 -117 12 -11 21 -29 21 -40 2 -51 34 -90 100
-123 77 -38 105 -68 120 -126 17 -68 28 -86 62 -107 41 -25 80 -26 100 -2 9 9
26 40 38 69 29 67 129 165 205 198 58 26 85 31 85 16 0 -15 -58 -352 -71 -411
-13 -60 -47 -157 -82 -234 -18 -41 -35 -58 -109 -108 -119 -80 -224 -120 -303
-117 -135 6 -171 -4 -219 -61 -38 -45 -43 -76 -18 -109 l21 -28 -122 -7 c-903
-52 -2214 -474 -2904 -934 -98 -66 -186 -128 -196 -139 -16 -19 -17 -79 -15
-1044 l3 -1024 2775 -1 2775 -1 1 -22 c1 -13 -5 -21 -14 -21 -13 0 -13 -3 -4
-12 16 -16 15 -29 0 -23 -16 6 -66 -31 -56 -40 4 -4 17 0 29 9 17 11 26 13 36
4 19 -15 16 -38 -4 -38 -10 0 -1261 -1 -2780 -2 l-2763 -3 0 -150 0 -150 30
-17 c26 -15 31 -15 44 -2 15 14 36 75 36 102 0 6 12 13 28 13 27 1 2402 -1
4096 -4 l869 -2 12 -40 c21 -71 55 -113 119 -145 33 -17 67 -30 78 -30 15 0
18 -8 19 -52 0 -29 2 -159 4 -289 l4 -237 -57 -21 c-32 -11 -66 -27 -77 -35
-19 -15 -19 -16 18 -52 47 -45 41 -58 -8 -15 -20 17 -40 31 -45 31 -12 0 -46
-66 -55 -108 l-7 -34 -916 7 c-1512 10 -2230 13 -3178 14 l-901 1 -13 43 c-19
64 -39 97 -58 97 -37 0 -42 -19 -42 -177 l0 -152 2423 -3 c2395 -2 3868 1
3876 8 2 2 -3 12 -12 22 -13 14 -14 26 -7 57 8 34 6 43 -12 62 -17 19 -20 30
-15 70 6 44 5 47 -9 28 -8 -11 -17 -31 -20 -45 -3 -14 -11 -45 -19 -70 -8 -25
-15 -62 -15 -82 l0 -38 -305 0 -305 0 0 300 c0 262 2 299 15 294 8 -4 15 -9
16 -13 4 -30 6 -106 8 -283 0 -131 5 -208 11 -208 6 0 10 9 10 20 0 12 8 32
17 46 14 22 15 31 5 57 -12 33 -10 43 7 32 18 -10 13 -91 -8 -127 -26 -45 -35
-78 -22 -78 6 0 11 5 11 12 0 6 12 35 26 65 22 45 26 63 21 108 -3 30 -1 71 5
91 7 26 6 49 -1 78 -8 28 -9 51 -2 75 7 23 7 48 0 77 -8 30 -8 48 1 63 9 17 7
27 -7 51 -9 16 -23 32 -31 35 -11 4 -11 -1 3 -21 32 -49 -4 -100 -50 -70 -21
14 -35 53 -35 100 0 19 5 21 56 20 l55 -1 61 -111 c34 -62 63 -110 65 -108 2
2 -12 38 -31 79 -20 41 -46 112 -58 157 -20 77 -24 84 -56 97 -19 8 -42 11
-51 7 -12 -6 -10 -9 11 -11 35 -5 50 -25 46 -60 -2 -22 -9 -29 -31 -31 -41 -5
-59 14 -51 54 4 22 2 34 -5 34 -6 0 -11 11 -11 24 0 22 3 23 50 18 40 -4 51
-1 56 12 8 20 33 21 61 1 14 -10 23 -31 28 -62 15 -102 50 -208 90 -273 12
-19 32 -54 44 -77 l21 -43 -20 -76 c-23 -89 -44 -235 -37 -261 3 -12 5 -9 6 9
2 57 43 203 72 263 l31 62 -50 69 c-77 106 -119 198 -139 303 -16 85 -20 94
-50 112 -36 22 -48 48 -44 97 1 18 -3 40 -10 48 -9 11 -9 24 -2 52 6 20 10 72
9 115 -2 65 -8 88 -32 133 -16 30 -33 52 -39 51 -11 -4 -20 -366 -10 -406 6
-22 7 -23 25 -6 24 22 25 35 4 35 -13 0 -14 3 -5 14 7 9 8 22 3 37 -5 13 -5
37 -1 53 5 16 6 48 2 69 -8 52 12 42 28 -13 10 -32 9 -43 -3 -63 -14 -20 -14
-27 -2 -56 19 -46 18 -81 -3 -81 -15 0 -15 -1 0 -18 41 -45 -3 -109 -55 -81
-16 9 -19 18 -15 45 4 25 2 34 -8 34 -12 0 -14 48 -12 292 l2 293 240 3 c132
1 250 0 263 -3 20 -5 22 -11 22 -79 l0 -73 -52 -7 c-29 -3 -84 -6 -123 -7 -89
-1 -51 -16 45 -18 36 -1 82 -4 103 -8 34 -5 38 -8 33 -29 -4 -14 0 -34 8 -47
8 -12 13 -45 13 -75 -1 -42 -4 -52 -16 -50 -12 3 -17 19 -19 70 -2 37 -9 79
-16 93 -12 23 -13 15 -8 -65 4 -84 3 -92 -17 -111 -16 -15 -21 -30 -20 -57 2
-20 -3 -48 -10 -61 -18 -32 -16 -97 4 -127 21 -32 76 -33 107 -2 l21 21 37
-39 c39 -43 62 -96 79 -184 l10 -55 -3 70 c-2 44 -11 89 -24 120 l-22 50 25
-30 c32 -38 64 -122 67 -177 3 -38 0 -43 -19 -46 -44 -6 -22 -17 35 -18 65 0
105 -18 157 -70 77 -77 131 -241 142 -431 l6 -101 -69 -7 c-98 -9 -101 -13
-11 -14 44 -1 77 -5 77 -11 0 -6 -85 -10 -235 -10 -157 0 -235 -3 -235 -10 0
-8 78 -10 243 -8 l242 3 3 -37 c3 -39 -2 -45 -28 -28 -10 6 -11 10 -2 10 6 0
12 4 12 8 0 4 -16 8 -36 8 l-37 0 34 -28 c18 -15 39 -28 47 -28 9 0 12 -9 10
-27 l-3 -28 -330 -7 c-316 -7 -2064 -2 -3125 8 -278 3 -514 6 -525 6 -11 0
-617 -1 -1347 -1 l-1328 -1 0 -100 0 -100 140 0 140 0 0 -47 c1 -255 32 -378
118 -470 34 -37 44 -43 80 -43 52 0 53 -10 9 -99 -30 -61 -32 -74 -35 -186 -3
-99 -1 -130 16 -178 30 -89 16 -116 -124 -257 -93 -94 -114 -121 -114 -144 0
-25 23 -52 139 -165 132 -129 140 -139 156 -196 24 -84 30 -135 16 -135 -17 0
-13 -55 11 -152 19 -81 24 -90 57 -109 41 -24 138 -30 151 -8 21 33 29 232 10
254 -10 12 -11 29 -2 79 19 117 42 154 168 267 63 56 114 110 114 119 0 25
-72 30 -461 30 -283 0 -339 2 -339 14 0 23 57 27 425 25 196 0 359 1 362 4 13
14 -17 58 -98 144 -53 55 -89 101 -89 114 0 11 -4 28 -9 37 -6 11 -5 38 4 76
12 49 11 64 -1 98 -8 24 -14 79 -14 138 0 61 -6 113 -15 140 -20 56 -19 58 13
62 20 2 36 17 64 59 51 77 68 168 68 372 l0 158 1293 -4 c1179 -3 1299 -5
1377 -21 47 -9 121 -18 165 -19 l79 -3 17 -44 c81 -226 254 -386 496 -460 72
-22 96 -21 87 4 -7 19 13 66 39 87 27 23 75 24 105 3 29 -20 30 -74 2 -99 -11
-10 -20 -29 -20 -42 0 -12 -5 -23 -11 -23 -18 0 -83 -56 -101 -88 -27 -46 -9
-45 26 1 18 23 50 52 71 64 27 15 42 31 45 49 l5 27 139 -2 c96 -2 136 1 131
8 -4 7 -52 11 -126 11 -73 0 -119 4 -119 10 0 6 47 10 120 10 66 0 120 2 120
5 0 2 -9 15 -20 27 -12 13 -33 38 -49 57 -25 30 -30 33 -56 24 -16 -5 -36 -23
-47 -44 -10 -18 -26 -40 -35 -46 -14 -11 -18 -7 -32 34 -19 56 -54 84 -112 90
-69 7 -128 -39 -144 -112 l-7 -30 24 29 c28 33 41 24 32 -23 -4 -17 -7 -31 -8
-31 -11 0 -104 35 -113 42 -9 8 -6 22 13 60 21 41 28 48 40 37 8 -6 18 -8 22
-4 4 4 2 10 -4 12 -6 2 -48 27 -94 55 -176 108 -288 267 -298 423 -6 97 12
100 26 4 23 -157 133 -308 291 -403 71 -42 87 -47 119 -42 20 4 63 9 95 12
l58 6 45 -46 c24 -25 44 -55 44 -66 0 -31 17 -23 30 14 10 33 43 56 79 56 20
0 42 -23 59 -63 15 -36 25 -34 40 8 29 79 109 111 197 77 l55 -21 72 37 c54
27 97 60 164 127 79 79 95 100 123 169 18 44 37 106 41 139 5 32 11 62 14 65
16 15 19 -16 9 -82 -21 -151 -120 -296 -263 -387 -125 -80 -115 -66 -86 -129
24 -51 25 -56 9 -67 -28 -21 -41 -15 -61 30 -28 62 -62 89 -120 95 -66 6 -98
-22 -114 -98 -10 -52 -10 -57 16 -94 14 -21 26 -42 26 -46 0 -4 14 -13 31 -20
70 -30 114 -100 128 -205 l8 -60 2 56 c0 31 -6 75 -14 98 -8 22 -12 41 -10 41
9 0 45 -80 45 -99 0 -10 7 -21 15 -25 18 -6 20 -27 3 -24 -7 2 -16 -17 -21
-44 -6 -31 -15 -49 -26 -53 -10 -3 -32 -23 -50 -45 -54 -67 -91 -80 -234 -80
-68 0 -127 3 -130 7 -4 4 -32 5 -63 4 -50 -2 -59 1 -103 34 -71 55 -96 112
-88 210 3 42 2 75 -4 75 -15 0 -21 -46 -17 -127 3 -69 7 -84 36 -125 18 -26
46 -55 62 -65 30 -17 40 -54 22 -78 -9 -13 -175 -160 -226 -201 -34 -26 -39
-37 -43 -81 l-5 -51 113 -89 c150 -117 187 -151 206 -186 25 -49 53 -139 59
-187 3 -25 7 -53 10 -63 3 -10 7 -46 9 -81 3 -41 11 -75 25 -99 24 -40 58 -57
71 -36 15 24 21 113 10 142 -15 38 -15 39 16 35 37 -4 53 -38 53 -113 l1 -60
23 26 c17 20 24 44 29 92 6 68 23 113 51 136 10 8 16 29 16 55 0 24 12 65 28
101 24 50 50 79 153 172 68 61 136 121 151 132 l26 21 21 -68 c11 -37 34 -121
52 -187 17 -66 42 -160 55 -210 13 -49 24 -98 24 -107 0 -10 11 -20 25 -24 23
-6 25 -11 25 -56 0 -48 1 -50 23 -42 12 5 81 8 152 6 72 -1 181 -2 243 -2 64
0 112 -5 112 -10 0 -5 -10 -12 -22 -14 -13 -3 -32 -7 -43 -9 -13 -3 -8 -5 11
-6 17 0 42 -10 55 -22 21 -18 32 -20 84 -15 33 4 114 11 180 17 115 10 142 14
238 41 29 8 148 11 388 9 335 -2 347 -2 380 18 31 19 50 21 218 21 l184 0 47
30 c47 30 48 31 44 78 -10 150 -15 197 -23 206 -4 6 -15 32 -25 59 -14 37 -16
54 -7 78 7 21 7 38 0 57 -11 28 1 357 21 602 5 63 14 171 20 240 20 236 32
515 36 815 3 204 9 328 19 388 8 48 15 131 15 184 0 123 17 213 41 213 25 0
96 -32 186 -83 43 -25 137 -69 208 -98 135 -55 391 -182 460 -229 37 -25 179
-107 235 -137 22 -11 12 -13 -85 -13 -60 -1 -169 -5 -241 -9 -116 -7 -136 -11
-182 -36 -67 -36 -127 -101 -159 -171 -36 -78 -62 -285 -70 -539 -5 -182 -3
-230 15 -355 43 -293 55 -434 56 -665 1 -294 -27 -585 -56 -585 -19 0 -5 -32
30 -70 39 -40 39 -40 115 -40 74 0 77 1 91 28 8 16 22 66 31 113 9 46 23 113
31 149 19 86 21 98 35 285 16 209 15 593 -1 823 -11 166 -11 191 5 277 l18 95
499 0 499 0 24 -53 c41 -88 47 -145 43 -402 -7 -567 -2 -874 18 -1005 3 -19 9
-62 15 -95 5 -33 9 -79 9 -102 0 -46 9 -51 67 -45 l33 4 -6 92 c-3 50 -10 149
-15 220 -11 155 -10 538 1 616 5 34 6 -7 3 -110 -5 -181 11 -361 47 -510 27
-112 47 -206 56 -255 4 -22 8 -42 9 -45 5 -21 37 -69 50 -74 32 -12 92 -6 106
10 10 12 10 20 1 35 -7 10 -21 60 -33 111 -38 171 -50 285 -49 486 0 202 20
389 76 712 47 274 42 600 -14 851 -23 104 -34 133 -61 168 -54 68 -97 84 -230
89 -64 2 -108 8 -100 12 10 7 11 18 1 60 -21 90 -14 113 13 41 13 -35 27 -67
33 -73 5 -5 27 -6 50 -2 37 6 42 10 42 34 0 15 -7 40 -14 56 -13 26 -46 189
-77 388 -8 50 -8 138 1 325 6 141 14 326 16 411 5 203 46 574 99 900 58 364
65 424 55 500 -10 85 -39 174 -74 235 -24 39 -24 41 -7 64 15 20 24 23 53 17
19 -3 38 -3 42 1 4 4 28 8 54 8 36 0 48 4 57 20 22 43 24 45 50 33 20 -9 28
-8 42 5 10 8 29 17 43 19 20 2 26 10 28 33 5 53 11 61 28 37 8 -12 24 -22 34
-22 24 0 60 46 60 76 0 13 7 27 16 32 11 6 15 18 12 35 -5 24 -3 25 23 20 26
-5 31 -2 44 30 8 20 15 50 15 68 0 20 8 37 22 49 22 17 22 19 6 53 -16 33 -16
35 2 40 28 7 36 53 16 93 -15 32 -15 35 4 54 25 25 25 38 -2 67 -20 21 -20 24
-5 41 23 25 21 47 -5 65 l-23 15 32 18 c40 23 42 48 7 71 -22 14 -25 22 -21
50 3 19 3 41 0 49 -6 17 -36 18 -65 3 -16 -9 -24 -8 -36 4 -13 14 -12 18 7 43
11 14 21 33 21 40 0 21 -63 74 -87 74 -14 0 -23 6 -23 15 0 25 -45 48 -81 40
-24 -6 -30 -4 -27 6 4 11 29 14 103 14 128 0 133 15 18 50 -48 14 -94 28 -100
30 -7 3 -13 11 -13 20 0 23 64 236 100 335 38 102 54 166 47 185 -10 24 -123
83 -213 110 -49 15 -108 33 -132 41 -23 8 -57 14 -75 14 -61 0 -67 -11 -138
-225 -17 -49 -39 -112 -49 -140 -10 -27 -29 -83 -41 -122 -23 -79 -28 -82 -84
-59 -19 8 -70 24 -112 36 -43 12 -86 24 -95 26 -57 17 68 -90 137 -116 26 -10
29 -17 19 -44 -5 -13 -9 -14 -20 -5 -8 6 -14 18 -14 25 0 17 -22 18 -38 2 -8
-8 -15 -8 -26 2 -9 7 -26 10 -41 6 -24 -6 -34 -20 -49 -69 -5 -17 -8 -16 -35
4 -39 29 -65 18 -98 -42 -31 -54 -39 -59 -48 -29 -9 27 -31 25 -67 -5 -16 -14
-38 -25 -47 -25 -23 0 -71 -37 -71 -54 0 -7 11 -23 25 -36 33 -31 33 -52 0
-44 -18 4 -32 1 -45 -11 -26 -24 -25 -49 3 -68 18 -13 19 -16 5 -16 -9 -1 -20
4 -23 9 -14 22 -34 8 -50 -34 -12 -31 -24 -46 -41 -50 -17 -5 -24 -13 -24 -31
0 -13 5 -27 11 -31 15 -9 4 -46 -27 -91 -14 -22 -24 -48 -22 -63 3 -22 8 -25
43 -25 38 0 40 -1 37 -30 -4 -32 -27 -65 -47 -65 -16 0 -25 -23 -25 -66 0 -19
-7 -46 -16 -59 -24 -37 -15 -69 21 -75 28 -5 30 -8 27 -47 -3 -33 0 -44 16
-52 12 -6 28 -8 36 -5 14 5 14 2 2 -33 -8 -24 -10 -45 -5 -55 7 -12 -6 -23
-64 -52 -97 -49 -117 -64 -97 -76 8 -5 23 -10 33 -10 10 0 37 -8 60 -18 23
-11 69 -30 102 -42 67 -27 120 -55 150 -80 30 -25 45 -32 45 -21 0 9 -112 92
-140 104 -8 3 -53 22 -100 41 -46 20 -93 36 -104 36 -19 0 -19 1 -4 16 15 16
191 94 210 94 5 0 1 -11 -8 -25 -15 -24 -15 -25 18 -45 40 -24 69 -25 110 -4
18 9 45 20 61 25 27 7 30 5 47 -34 11 -23 20 -52 20 -64 0 -19 -4 -21 -34 -16
-27 4 -36 1 -50 -18 -24 -35 -20 -51 25 -82 49 -35 65 -60 73 -112 l5 -40 -15
30 -15 30 5 -30 c3 -16 8 -40 12 -52 4 -14 2 -23 -4 -23 -6 0 -14 21 -18 46
-4 27 -10 42 -16 36 -5 -5 -4 -27 4 -55 19 -73 6 -76 -103 -24 -52 24 -105 48
-118 53 -22 9 -20 12 39 53 33 24 59 45 56 48 -7 8 -159 -90 -158 -102 0 -5
31 -20 69 -32 184 -61 235 -102 204 -161 -6 -9 -12 -29 -16 -44 -6 -30 -36
-54 -187 -151 -120 -78 -213 -154 -228 -189 -11 -25 -11 -64 3 -252 3 -47 22
-75 60 -89 26 -10 -190 -397 -260 -464 -18 -18 -33 -37 -33 -43 0 -29 -48 -34
-295 -34 -251 0 -292 4 -460 43 -44 11 -109 24 -145 30 -136 22 -261 60 -355
108 -28 14 -33 13 -90 -15 -33 -17 -77 -37 -97 -46 -23 -9 -38 -23 -39 -33 0
-27 -101 -99 -199 -143 -22 -10 -68 -106 -81 -169 -19 -90 -17 -253 4 -284 9
-15 17 -39 17 -55 0 -20 14 -44 50 -82 27 -30 47 -57 44 -60 -3 -3 -27 18 -52
47 -27 29 -59 54 -75 57 -43 10 -55 47 -34 106 10 27 14 60 11 77 -5 28 5 117
25 215 12 55 65 164 83 171 31 11 -51 27 -142 27 -83 0 -108 4 -153 23 l-53
24 -17 209 c-9 115 -26 304 -37 419 -57 595 -82 873 -110 1230 -11 138 -22
275 -24 305 -6 60 -17 30 242 625 55 127 121 281 147 343 64 149 63 149 103
128 17 -9 59 -19 92 -23 47 -4 63 -11 74 -28 22 -33 108 -72 206 -91 80 -17
90 -17 175 0 50 9 107 19 127 21 50 6 198 79 237 118 18 17 38 42 46 56 19 39
55 177 55 215 0 34 0 34 53 39 28 3 77 12 107 21 30 9 87 21 125 27 123 18
133 20 167 50 32 28 33 29 13 45 -17 14 -40 15 -157 10 l-137 -6 -46 35 -46
35 33 20 c23 15 44 20 71 16 45 -5 53 20 10 29 -16 4 -37 8 -47 10 -11 2 -48
-3 -84 -11 -35 -8 -66 -13 -69 -10 -7 7 16 48 45 79 14 15 21 27 15 27 -6 0
-31 -22 -56 -50 l-45 -49 -32 60 c-37 69 -36 99 1 175 27 52 19 64 -40 64 -19
0 -42 7 -52 16 -12 11 -39 16 -88 17 -69 1 -71 2 -71 26 0 13 7 33 16 42 15
17 15 21 -1 56 -10 21 -23 41 -28 45 -12 8 -53 -19 -113 -73 -38 -34 -104 -76
-104 -65 0 12 28 55 33 50 3 -3 13 -2 22 4 15 8 14 11 -9 29 -23 19 -26 28
-26 85 0 50 -6 76 -27 119 l-28 54 -60 3 c-100 5 -209 -51 -333 -172 l-62 -61
-63 23 c-85 30 -118 27 -37 -4 36 -14 69 -29 74 -34 5 -5 -14 -33 -44 -64 -41
-44 -59 -56 -83 -56 l-30 0 6 94 5 94 -36 6 c-21 3 -75 6 -122 6 -47 0 -103 5
-126 10 -34 8 -258 24 -304 21 -8 0 -62 -9 -120 -20 -124 -23 -325 -38 -333
-24 -3 5 10 7 30 5 22 -3 33 -1 30 5 -4 6 -30 13 -59 16 -79 8 -141 42 -177
96 -59 93 -141 266 -141 301 0 19 -14 73 -30 120 -17 46 -30 92 -30 102 0 28
-76 112 -92 102 -15 -9 -36 15 -63 73 -27 61 -66 112 -99 130 -27 16 -25 16
-70 -8z m85 -26 c34 -29 99 -153 99 -190 0 -17 -10 -27 -35 -38 -36 -14 -36
-15 -29 -63 6 -47 5 -49 -30 -73 -20 -13 -36 -27 -36 -31 0 -13 12 -9 32 9 10
9 21 13 26 9 7 -8 -27 -40 -51 -49 -6 -2 -9 -7 -5 -11 3 -4 16 -3 27 4 12 6
21 7 21 1 0 -5 -12 -12 -27 -16 -18 -4 -23 -9 -15 -14 21 -13 -21 -56 -67 -70
-23 -6 -57 -9 -76 -5 -29 5 -36 12 -45 43 -5 20 -10 51 -10 70 0 39 -9 38 -12
-2 -3 -33 -32 -37 -48 -7 -13 25 -35 27 -25 3 12 -33 -13 1 -38 51 -13 26 -27
44 -30 39 -3 -5 7 -34 23 -64 34 -62 35 -69 16 -69 -7 0 -19 15 -27 33 -7 17
-21 40 -31 50 -10 10 -19 29 -19 42 -2 41 -4 45 -14 45 -16 -1 -6 -72 15 -108
19 -32 19 -32 0 -22 -35 19 -50 52 -50 112 l0 58 59 43 c33 23 82 55 108 72
26 16 71 51 98 76 50 47 129 99 152 99 6 0 26 -12 44 -27z m181 -210 c30 -37
98 -236 98 -288 0 -31 101 -250 141 -307 11 -14 19 -36 19 -47 0 -12 6 -21 14
-21 21 0 27 -14 31 -68 4 -60 -4 -102 -19 -102 -7 0 -20 -15 -29 -32 -8 -18
-16 -26 -16 -17 -1 9 8 28 19 42 11 14 20 31 20 37 0 24 -31 -13 -61 -71 -16
-32 -37 -62 -46 -68 -10 -5 -15 -13 -11 -17 10 -10 69 20 98 50 l24 26 13 -32
c8 -17 11 -39 7 -47 -11 -28 -16 -91 -8 -109 5 -12 11 1 18 43 l11 60 57 3
c65 3 65 3 60 -86 -4 -60 -5 -63 -25 -57 -12 3 -47 9 -78 12 -69 7 -71 2 -59
-104 7 -67 6 -79 -8 -89 -16 -11 -17 -4 -20 79 -2 51 2 101 7 112 5 11 12 47
15 80 3 33 8 70 12 83 9 30 -10 28 -24 -3 -9 -18 -19 -25 -41 -25 -34 0 -36
-5 -46 -102 -8 -86 9 -91 21 -6 7 48 13 64 27 66 23 5 22 -20 -4 -155 -12 -62
-18 -124 -15 -145 3 -20 2 -40 -4 -43 -6 -4 -10 24 -10 76 0 61 -3 80 -11 72
-8 -8 -10 -44 -7 -107 2 -53 3 -96 1 -96 -1 0 -7 9 -13 19 -17 34 -31 161 -31
295 l0 129 50 89 c50 87 58 108 44 108 -8 0 -23 -24 -78 -125 -32 -59 -33 -62
-38 -222 -3 -88 -1 -165 4 -170 5 -5 11 -31 15 -58 8 -71 -12 -36 -28 49 -7
36 -16 66 -20 66 -11 0 -10 -9 9 -95 22 -103 -2 -121 -27 -20 -24 92 -29 102
-23 40 3 -33 11 -75 19 -93 12 -31 12 -32 -6 -22 -13 7 -27 37 -41 83 -11 39
-22 77 -24 82 -7 20 -4 -31 4 -72 5 -24 4 -43 0 -43 -5 0 -9 1 -9 3 0 1 -7 20
-15 42 -15 38 -16 38 -12 8 2 -18 -1 -29 -6 -26 -22 13 -137 288 -137 327 0
12 -4 26 -10 32 -8 8 -170 604 -170 627 0 4 21 7 48 7 26 1 61 7 77 14 29 12
31 11 53 -21 28 -41 28 -109 0 -107 -22 2 -24 -14 -3 -22 18 -7 44 12 54 39 6
15 11 9 28 -30 12 -26 25 -57 29 -68 7 -18 8 -17 11 7 5 29 -43 132 -56 123
-5 -3 -14 9 -20 27 -6 18 -21 42 -32 54 -13 14 -17 24 -10 29 6 3 14 -1 17 -9
8 -22 26 -9 23 17 -1 12 7 42 19 67 18 38 20 57 15 115 l-6 70 36 13 c19 7 41
19 47 27 16 19 24 19 42 -2z m-851 -113 c30 -16 153 -111 157 -122 2 -5 11
-15 20 -24 15 -16 30 -81 31 -140 1 -23 -12 -50 -45 -94 -25 -34 -48 -59 -51
-56 -3 3 8 21 25 41 38 43 65 92 59 108 -2 7 -14 -9 -27 -36 -21 -45 -51 -80
-37 -44 27 70 12 214 -22 225 -10 4 -12 0 -6 -14 32 -80 22 -201 -26 -296 -16
-32 -31 -58 -34 -58 -2 0 -25 13 -51 29 -49 32 -120 51 -186 51 l-40 0 6 68
c7 76 42 252 59 297 l11 29 6 -24 c6 -24 7 -24 14 7 4 17 18 43 31 57 25 27
49 26 106 -4z m272 -202 c4 -12 1 -28 -5 -35 -8 -10 -6 -13 9 -13 12 0 25 -13
36 -35 22 -46 22 -47 -8 -39 -15 4 -25 2 -25 -4 0 -6 13 -13 29 -17 38 -8 63
-35 26 -27 -15 2 -25 0 -25 -7 0 -6 6 -11 14 -11 7 0 19 -7 26 -15 11 -13 8
-14 -21 -9 l-34 6 25 -21 25 -22 -27 7 c-16 3 -28 2 -28 -4 0 -11 31 -38 39
-34 3 2 8 -6 12 -17 6 -16 -1 -26 -38 -53 -83 -59 -135 -115 -129 -136 5 -14
1 -21 -14 -25 -11 -3 -20 -12 -20 -21 0 -9 -7 -16 -16 -16 -9 0 -12 5 -8 13 6
10 4 10 -7 0 -17 -16 -51 -17 -67 -1 -27 27 -7 78 30 78 10 0 18 5 18 10 0 6
-12 10 -27 10 -24 1 -26 2 -10 11 9 5 22 7 28 3 7 -4 10 -1 7 7 -5 15 -21 16
-51 4 -13 -6 -16 -3 -11 9 4 9 18 16 33 16 15 0 32 5 39 12 8 8 15 8 27 -2 12
-10 15 -10 15 3 0 9 -5 19 -11 22 -6 4 7 22 32 43 72 62 117 149 90 178 -15
16 -22 142 -8 148 21 8 25 6 30 -16z m-1189 -25 c23 -15 57 -44 77 -64 20 -20
63 -49 95 -65 51 -25 70 -29 139 -28 76 1 85 4 180 54 55 29 115 64 134 79 71
55 68 55 64 19 -7 -55 -15 -66 -24 -33 -5 18 -6 -1 -3 -50 3 -57 2 -76 -5 -65
-6 8 -11 29 -12 45 0 17 -4 39 -9 50 -7 16 -9 10 -11 -25 l-2 -45 -7 40 c-4
28 -9 35 -14 24 -6 -14 2 -66 19 -114 6 -17 4 -17 -14 4 -12 13 -21 36 -21 53
0 17 -4 27 -10 23 -15 -9 -12 -37 9 -78 13 -26 15 -37 6 -37 -7 0 -19 24 -28
53 l-15 52 -1 -42 c-1 -31 -5 -43 -16 -43 -22 0 -18 -15 8 -29 l22 -12 -22 5
c-13 2 -26 0 -29 -5 -3 -5 -14 -9 -25 -9 -10 0 -19 -4 -19 -10 0 -5 5 -10 11
-10 6 0 -12 -24 -40 -53 -61 -63 -97 -114 -107 -151 -8 -34 -35 -49 -66 -37
-35 13 -53 40 -74 105 -22 74 -44 99 -119 139 -66 36 -110 91 -84 108 11 8 8
14 -14 34 -21 18 -27 31 -22 46 5 16 10 18 21 9 10 -9 17 -9 28 3 13 13 13 17
-2 30 -10 9 -34 23 -55 32 -20 8 -37 16 -37 18 0 1 12 4 27 5 16 1 44 -9 67
-25z m1332 -53 c27 -10 31 -19 70 -155 23 -80 40 -145 39 -145 -2 0 -28 44
-58 98 -31 53 -71 123 -91 155 -36 61 -40 103 -7 73 10 -9 31 -20 47 -26z
m2511 -165 c18 -13 20 -20 12 -54 -5 -21 -13 -50 -19 -65 -6 -16 -6 -26 0 -26
5 0 15 19 21 43 14 47 29 70 29 44 0 -26 -25 -80 -43 -96 -22 -17 -22 -32 -1
-24 9 3 27 29 40 57 22 48 24 49 25 21 5 -113 -8 -189 -46 -272 -30 -65 -52
-79 -142 -95 -63 -10 -79 -10 -125 5 -77 24 -87 34 -99 103 -9 50 -8 71 5 114
19 62 19 70 7 70 -6 0 -18 -25 -27 -55 -19 -60 -30 -65 -28 -11 3 55 104 163
201 214 32 17 33 16 35 -30 l1 -43 7 45 c8 51 13 27 12 -55 -1 -43 0 -46 7
-20 5 17 9 53 10 82 1 56 -4 52 81 61 9 1 25 -5 37 -13z m-2988 -307 c-17 -38
-34 -80 -39 -93 l-9 -25 -33 19 c-18 11 -59 25 -92 32 l-58 13 7 60 c3 34 9
63 11 65 3 3 35 -11 72 -30 96 -49 124 -61 117 -50 -3 6 -45 32 -93 57 -48 26
-88 48 -89 49 -2 1 13 98 24 154 4 22 13 16 108 -79 l103 -103 -29 -69z m651
-42 c23 -83 61 -190 82 -239 22 -49 37 -91 34 -94 -8 -9 -44 26 -52 50 -3 11
-9 15 -13 10 -8 -13 -199 122 -266 188 -28 27 -56 49 -62 49 -21 0 -25 21 -7
41 16 18 16 19 0 19 -9 0 -19 -7 -22 -15 -4 -8 -10 -12 -15 -9 -17 10 -9 22
27 44 48 30 34 39 -17 11 -35 -20 -44 -21 -69 -11 -37 15 -30 30 12 24 18 -2
39 2 47 10 9 7 36 25 61 38 120 67 120 67 120 110 l0 40 48 -59 c44 -53 52
-72 92 -207z m1495 192 c4 -3 1 -16 -5 -29 -11 -20 -13 -20 -22 -6 -16 30 -29
18 -13 -13 18 -35 19 -48 3 -32 -20 20 -30 13 -14 -10 20 -28 20 -38 2 -38 -9
0 -13 -12 -11 -40 1 -22 -1 -40 -4 -41 -3 -1 -20 -2 -37 -4 -16 -1 -40 -5 -51
-9 -21 -7 -21 -4 -18 76 2 46 4 102 4 125 1 40 3 42 34 45 34 3 121 -12 132
-24z m-419 -150 c-25 -89 -46 -173 -46 -185 0 -26 -12 -30 -30 -8 -10 12 -17
10 -52 -12 -31 -21 -41 -24 -48 -13 -16 26 -22 242 -8 281 27 74 47 88 139 97
46 4 85 7 87 6 2 -1 -17 -76 -42 -166z m630 66 c-3 -96 -8 -104 -71 -104 -22
0 -50 -3 -62 -6 -31 -8 -30 7 7 96 38 93 45 100 91 100 l38 0 -3 -86z m-816
69 c0 -3 -7 -30 -17 -59 -14 -46 -15 -69 -5 -185 6 -73 9 -136 6 -141 -6 -10
-89 -52 -121 -62 -23 -7 -23 -6 -23 71 1 43 7 107 15 143 8 36 14 86 15 111 0
66 17 106 48 118 31 11 82 14 82 4z m-1475 -52 c-4 -19 0 -41 10 -60 17 -33
32 -37 126 -33 53 3 72 -8 214 -126 52 -42 132 -103 178 -135 47 -32 112 -84
144 -115 56 -55 123 -135 123 -146 0 -3 -220 -6 -490 -6 -477 0 -491 -1 -510
-20 -27 -27 -30 -26 -30 15 0 80 29 166 186 537 27 65 50 118 52 118 2 0 1
-13 -3 -29z m3209 -3 c7 -21 3 -36 -24 -79 -18 -29 -35 -71 -38 -92 l-5 -39
34 7 c19 4 64 22 101 40 64 30 67 31 82 13 9 -10 29 -18 45 -18 58 0 61 -5 35
-68 -29 -70 -29 -78 -4 -125 25 -46 25 -57 1 -57 -28 0 -64 -66 -57 -104 l6
-30 -40 39 -40 39 42 11 c27 6 44 16 46 27 3 16 1 16 -27 2 -17 -9 -43 -15
-59 -14 -43 3 -45 1 -22 -27 36 -47 70 -102 70 -113 0 -20 -21 -9 -87 47 -61
52 -84 75 -119 121 -23 31 -32 7 -13 -32 10 -22 17 -41 14 -44 -2 -2 -19 25
-37 62 -34 70 -48 82 -48 41 0 -31 -11 -32 -36 -2 -27 32 -42 69 -50 125 -5
40 -2 57 19 98 14 27 37 64 51 83 33 45 126 123 140 118 6 -2 15 -15 20 -29z
m-1321 -38 c8 -7 0 -59 -22 -144 -9 -35 -55 -96 -72 -96 -17 0 -31 74 -24 124
4 28 7 61 7 74 0 26 23 30 32 6 4 -9 9 -14 13 -11 3 4 -2 18 -11 31 -9 14 -16
27 -16 30 0 7 84 -6 93 -14z m-137 -31 c13 -21 -17 -157 -40 -177 -26 -22 -88
-51 -69 -31 9 9 9 16 2 25 -7 9 -4 34 11 86 28 92 28 93 51 72 23 -21 25 -7 2
18 -15 17 -15 18 10 18 14 0 29 -5 33 -11z m-1991 -94 c45 -10 115 -37 115
-44 0 -4 -25 -69 -56 -146 -63 -157 -87 -254 -83 -335 5 -102 -9 -155 -53
-205 -22 -25 -45 -45 -51 -44 -8 0 -8 2 1 6 26 10 10 21 -23 16 -27 -4 -44 0
-75 21 -23 15 -46 24 -53 20 -7 -4 -1 5 12 19 37 40 12 32 -33 -10 -36 -36
-42 -30 -8 10 28 32 1 17 -32 -18 -19 -19 -40 -35 -47 -35 -11 0 -11 2 1 10
24 15 -2 11 -30 -5 -14 -8 -28 -14 -32 -15 -4 0 -30 20 -58 45 -53 47 -60 51
-75 36 -6 -5 -27 -16 -47 -24 -31 -13 -36 -13 -31 -1 3 8 0 21 -7 29 -7 8 -9
15 -4 16 57 4 101 13 117 24 14 10 26 11 45 4 29 -11 41 -4 24 13 -7 7 -36 12
-70 11 -48 -2 -53 0 -34 9 31 15 28 32 -4 24 -21 -6 -25 -4 -21 8 4 9 2 16 -3
16 -5 0 -24 9 -42 20 l-33 21 82 -7 c73 -6 88 -4 152 21 39 14 85 37 103 49
187 128 183 122 249 324 33 104 46 131 58 128 9 -3 30 -8 46 -11z m2635 -24
c0 -39 73 -129 136 -168 18 -10 18 -12 2 -28 -42 -44 -140 24 -167 115 -9 32
-9 48 0 75 13 34 29 38 29 6z m-52 -39 c-1 -54 25 -105 77 -156 38 -38 51 -44
74 -40 26 5 28 3 28 -25 0 -20 -3 -27 -8 -19 -6 9 -11 10 -18 3 -6 -6 -28 -9
-50 -7 -47 5 -105 55 -128 110 -15 36 -10 118 9 155 13 25 17 21 16 -21z m562
-36 c-26 -55 -67 -92 -118 -106 -33 -9 -44 -7 -97 20 -59 29 -105 80 -105 115
0 19 4 19 40 0 16 -8 52 -20 80 -26 27 -6 48 -15 44 -20 -8 -14 6 -10 22 6 9
8 33 18 54 21 21 4 51 14 67 24 15 9 30 16 32 14 2 -2 -7 -23 -19 -48z m-613
-23 c-12 -84 85 -213 159 -213 12 0 29 -11 39 -26 18 -28 14 -44 -8 -26 -8 7
-17 9 -21 5 -4 -4 3 -16 16 -26 20 -17 21 -18 3 -12 -11 4 -29 9 -40 12 -19 4
-19 3 -2 -9 52 -37 54 -40 17 -35 -19 3 -44 9 -54 13 -13 5 -17 4 -13 -3 4 -6
28 -16 54 -24 42 -11 45 -13 21 -17 -16 -2 -28 -8 -28 -13 0 -17 -43 -9 -87
16 -23 14 -43 21 -43 16 0 -6 14 -17 30 -26 17 -9 30 -18 30 -20 0 -8 -52 15
-78 35 -13 11 -36 20 -50 20 -24 0 -25 -1 -7 -20 10 -11 14 -20 9 -20 -5 0
-15 9 -22 21 -7 11 -18 18 -25 16 -7 -2 -22 5 -34 16 -29 26 -42 14 -17 -15
20 -23 10 -19 -40 15 -30 21 -86 102 -86 124 0 7 5 13 12 13 7 0 26 12 42 28
l31 27 -24 -27 c-14 -16 -21 -31 -17 -35 4 -4 12 -1 17 7 8 11 9 9 4 -9 -14
-48 17 -15 41 44 19 46 41 75 92 122 37 34 71 63 75 63 5 0 6 -17 4 -37z m391
-166 c28 -9 59 -11 79 -7 28 7 31 6 24 -9 -26 -47 -97 -87 -135 -75 -11 3 -38
22 -58 42 -32 30 -38 43 -38 77 0 23 2 44 5 47 3 3 21 -10 41 -28 19 -19 56
-40 82 -47z m-103 -67 c41 -43 84 -55 130 -35 21 8 39 15 41 15 3 0 -7 -22
-20 -48 -24 -47 -53 -68 -122 -87 -31 -8 -89 35 -89 65 1 44 16 120 24 120 4
0 20 -13 36 -30z m1395 -80 c12 -8 12 -11 -3 -28 -13 -14 -42 -21 -121 -30
-57 -6 -131 -20 -163 -31 -32 -10 -101 -23 -153 -27 -135 -10 -792 -12 -813
-2 -14 7 -15 13 -6 29 9 17 17 20 42 15 18 -4 66 -6 107 -5 107 3 162 2 267
-4 53 -3 95 -1 99 4 3 5 9 7 14 4 5 -3 18 0 29 6 14 10 33 10 76 2 30 -5 58
-7 60 -3 2 3 33 5 70 5 36 -1 68 2 71 7 3 5 10 6 15 2 5 -3 15 -1 22 4 7 6 44
13 82 16 73 6 166 20 225 35 48 12 62 12 80 1z m-1375 -92 c19 1 48 8 65 17
36 18 36 16 10 -37 -11 -23 -20 -48 -20 -55 0 -32 -34 -114 -50 -123 -19 -10
-53 -94 -42 -104 3 -3 0 -6 -7 -6 -6 0 -16 10 -21 23 -7 18 -9 18 -9 4 -1 -10
-6 -15 -12 -12 -6 5 -8 22 -4 47 5 29 4 39 -4 34 -6 -4 -11 -18 -11 -31 0 -13
-5 -27 -11 -31 -13 -8 -3 69 13 100 8 14 7 17 -4 14 -7 -3 -18 -20 -25 -39
-11 -33 -11 -33 -11 24 0 32 8 84 18 115 11 31 20 66 20 78 0 34 12 36 42 8
20 -20 37 -27 63 -26z m901 -190 c-12 -47 -31 -100 -43 -117 -24 -32 -95 -84
-128 -94 -11 -3 -44 -15 -74 -26 -30 -11 -58 -18 -63 -15 -5 3 -14 1 -21 -4
-7 -6 -40 -14 -73 -17 -56 -7 -63 -5 -77 15 -14 21 -16 21 -26 3 -10 -17 -11
-17 -17 5 -5 18 -9 20 -20 11 -11 -9 -14 -7 -14 7 0 11 -5 26 -11 34 -8 11 -9
4 -7 -28 2 -26 0 -41 -7 -39 -6 3 -9 31 -8 67 3 54 1 61 -12 50 -9 -7 -15 -29
-15 -53 0 -63 -11 -36 -21 50 -5 43 -13 99 -18 126 -9 51 3 66 14 17 4 -16 11
-30 17 -30 5 0 7 12 3 30 -4 17 -2 30 3 30 5 0 13 -16 16 -35 4 -19 12 -35 18
-35 6 0 8 13 4 35 -8 40 8 49 18 10 4 -14 11 -25 17 -25 7 0 9 10 5 24 -6 23
-5 23 92 29 53 4 109 9 124 13 32 7 34 4 43 -79 4 -35 10 -55 17 -51 6 4 8 22
4 43 -3 20 -2 42 3 50 6 8 11 -7 15 -43 11 -85 30 -71 21 15 -5 47 -4 69 3 65
9 -5 21 -64 23 -109 0 -14 3 -16 13 -8 8 7 12 30 10 64 -1 28 0 42 2 29 8 -35
29 -21 32 21 4 43 32 53 32 12 0 -14 5 -25 10 -25 6 0 10 16 10 35 0 19 2 35
4 35 2 0 11 3 20 6 13 5 16 -1 16 -26 0 -44 20 -27 21 18 0 20 3 31 6 25 7
-19 23 -16 24 5 0 11 3 8 8 -8 5 -16 0 -57 -13 -112z m-777 74 c21 -13 27 -22
21 -32 -9 -14 8 -60 22 -60 5 0 6 16 2 37 -6 32 -5 35 10 30 10 -4 21 -7 25
-7 4 0 15 -44 24 -97 22 -133 27 -184 16 -177 -5 3 -9 16 -9 29 0 13 -3 31 -6
40 -11 28 -23 -4 -17 -43 5 -25 3 -33 -5 -28 -7 4 -12 23 -12 42 0 33 -13 46
-23 22 -3 -7 -6 -3 -6 8 -1 13 -9 24 -21 27 -18 4 -20 14 -21 79 -1 40 -1 79
0 86 1 6 -3 12 -9 12 -12 0 -13 -9 -10 -75 l2 -50 -21 19 c-23 21 -29 59 -8
51 14 -6 17 51 4 73 -7 11 -2 32 8 32 3 0 18 -8 34 -18z m2315 -992 c7 -5 16
-7 19 -3 13 13 55 -18 50 -37 -3 -12 3 -22 16 -29 26 -14 27 -39 4 -48 -36
-13 -43 -43 -15 -71 9 -10 23 -33 29 -52 15 -41 7 -53 -53 -76 -43 -16 -45
-16 -67 3 -26 25 -67 39 -67 24 0 -6 11 -13 25 -17 33 -8 54 -43 28 -46 -19
-1 -23 -1 -93 6 -25 2 -51 4 -57 5 -18 1 -16 26 2 41 13 11 13 15 0 40 -8 16
-19 30 -26 32 -6 2 -3 13 8 28 36 47 47 87 35 128 -15 51 -6 80 27 85 38 7
121 -1 135 -13z m-3004 -600 c10 -113 28 -311 40 -440 11 -129 29 -338 41
-465 11 -126 24 -282 29 -345 11 -132 29 -336 35 -395 15 -147 17 -215 7 -215
-17 0 -20 24 -37 230 -8 102 -23 282 -34 400 -62 664 -123 1454 -113 1477 5
14 8 12 10 -12 1 -16 11 -122 22 -235z m3103 237 c11 11 8 -12 -9 -58 -12 -34
-13 -52 -5 -79 5 -19 12 -53 14 -76 l5 -41 -127 -42 c-69 -23 -147 -51 -173
-61 -35 -15 -53 -18 -71 -11 -40 15 -40 27 -1 80 36 48 39 50 80 47 24 -1 46
-5 50 -9 3 -3 16 1 28 9 13 8 25 11 29 8 3 -4 22 -3 42 0 32 6 39 14 65 70 17
35 30 74 30 88 0 51 12 89 25 78 6 -5 15 -7 18 -3z m127 -147 c158 -46 292
-121 360 -201 50 -59 48 -69 -24 -147 -24 -26 -46 -57 -50 -69 -10 -31 -30
-45 -82 -54 -26 -5 -59 -15 -75 -23 -39 -19 -135 -13 -161 11 -11 10 -33 44
-48 75 l-29 58 48 0 c26 0 52 -5 57 -10 13 -13 44 -2 44 15 0 12 -57 150 -124
298 -31 68 -32 80 -8 73 9 -2 51 -14 92 -26z m-3351 -385 c6 -66 20 -219 31
-340 11 -121 22 -247 25 -280 3 -33 7 -80 10 -105 8 -65 35 -411 34 -435 0
-13 -8 -4 -22 25 -12 24 -42 65 -68 90 -26 25 -62 74 -80 109 -47 89 -126 171
-164 171 -47 0 -108 -40 -121 -78 -6 -19 -26 -43 -47 -58 -34 -23 -37 -29 -37
-72 0 -26 11 -87 24 -137 25 -93 24 -107 -12 -147 -13 -15 -33 -18 -134 -18
-65 0 -118 4 -118 8 0 8 86 222 120 297 37 83 79 183 114 270 20 50 45 108 56
130 27 56 67 148 100 230 15 39 41 99 57 135 40 87 98 217 140 315 19 44 41
96 50 115 l17 35 7 -70 c5 -38 13 -124 18 -190z m3150 54 c21 -39 41 -147 40
-214 l0 -30 -16 24 c-24 33 -89 182 -96 219 -4 20 -2 32 6 36 30 12 46 4 66
-35z m10 -426 c-7 -10 -27 -34 -45 -53 -45 -49 -173 -219 -190 -252 -27 -52 2
-28 45 38 51 78 151 197 158 190 8 -8 -76 -136 -111 -169 -16 -15 -26 -30 -22
-34 17 -18 138 145 171 230 20 52 49 74 39 29 -8 -36 -47 -102 -73 -126 -15
-14 -21 -31 -21 -62 0 -31 -4 -42 -12 -39 -14 6 -255 -231 -246 -240 3 -4 54
39 112 96 58 56 106 98 106 94 0 -4 -51 -59 -113 -123 -125 -130 -177 -201
-177 -244 0 -44 -24 -34 -74 31 -54 70 -59 108 -26 213 22 73 62 117 154 168
32 18 81 53 108 77 76 67 70 51 -12 -34 -49 -50 -61 -66 -35 -46 23 17 92 86
154 152 104 111 144 148 110 104z m-213 -152 c-30 -27 -85 -67 -122 -89 -130
-76 -168 -142 -188 -327 -10 -97 -13 -107 -24 -87 -8 14 -10 28 -3 40 13 25
18 71 6 71 -15 -1 -24 32 -24 99 -1 56 2 64 26 85 15 12 45 38 67 58 48 43
285 198 304 199 7 0 -12 -22 -42 -49z m377 -103 c18 -9 23 -28 7 -28 -5 0 -10
-6 -10 -13 0 -11 -91 -170 -105 -186 -7 -7 -75 52 -75 65 0 7 7 32 16 54 11
28 22 40 36 40 17 0 18 3 9 14 -10 12 -8 13 8 9 23 -6 28 6 9 25 -9 9 -5 12
21 12 29 0 32 2 20 16 -11 13 -9 14 17 8 16 -4 37 -11 47 -16z m-319 -185
c-14 -32 -35 -74 -48 -93 -13 -20 -36 -61 -51 -90 -44 -88 -65 -113 -81 -99
-27 23 -28 74 0 117 24 38 46 61 46 47 0 -3 -12 -28 -26 -56 -26 -53 -27 -63
-3 -54 16 6 109 186 109 209 0 12 63 76 75 76 3 0 -7 -26 -21 -57z m-3379
-130 c7 -32 81 -290 90 -316 6 -14 2 -17 -23 -17 -34 0 -36 4 -82 159 -32 110
-38 169 -18 189 18 18 27 14 33 -15z m3559 -250 c-3 -36 -14 -191 -18 -263 -1
-30 3 -95 11 -145 7 -49 10 -112 6 -139 -10 -77 -67 -243 -82 -238 -7 2 -15
-5 -18 -17 -10 -40 -20 -21 -15 29 3 33 1 50 -6 50 -13 0 -76 -95 -87 -131
-15 -49 -45 -96 -71 -114 l-27 -17 5 26 c6 32 -10 126 -24 144 -9 10 -14 9
-29 -4 -16 -15 -19 -14 -34 10 -21 32 -25 82 -14 192 18 179 29 209 121 347
64 95 85 109 45 30 -47 -93 -127 -392 -127 -475 0 -30 32 -78 52 -78 13 0 37
68 54 149 9 42 19 80 22 86 4 5 8 19 9 30 5 59 142 518 160 535 14 13 15 13 9
-5 -9 -32 -84 -425 -91 -480 -10 -84 11 -29 30 75 9 52 34 175 56 272 21 97
39 181 39 185 0 4 6 0 13 -9 7 -9 12 -29 11 -45z m-1974 -329 c52 -20 98 -38
103 -41 4 -2 -7 -24 -24 -48 -33 -45 -57 -55 -146 -55 -24 0 -43 -5 -43 -11 0
-7 24 -8 73 -4 52 5 68 4 57 -4 -8 -6 -29 -11 -47 -11 -17 0 -35 -5 -38 -11
-5 -7 7 -8 39 -4 l46 7 -10 -26 c-22 -60 -9 -86 43 -86 17 0 19 -2 8 -9 -8 -5
-62 -12 -120 -16 -58 -4 -126 -11 -151 -16 -43 -9 -150 -12 -158 -4 -2 2 1 12
7 22 5 11 12 48 16 84 6 67 20 89 60 89 12 0 26 5 32 11 9 9 24 9 59 0 53 -14
73 -6 26 10 -31 11 -31 11 -15 36 16 25 16 26 -7 45 -24 20 -72 21 -112 4 -13
-6 -18 -4 -18 7 0 10 22 23 63 36 34 12 73 30 86 40 21 16 27 17 50 5 14 -8
69 -30 121 -50z m-1063 -18 c82 -41 204 -100 273 -131 69 -32 131 -62 138 -67
15 -13 16 -68 1 -68 -6 0 -54 22 -107 48 -53 27 -187 91 -297 142 -213 100
-232 110 -197 110 15 0 22 6 22 20 0 11 4 20 10 20 5 0 76 -33 157 -74z m2589
-253 c-31 -311 -30 -308 -59 -298 -22 9 -47 77 -47 129 0 42 26 123 36 113 3
-3 -2 -22 -10 -42 -9 -21 -16 -49 -16 -64 1 -21 60 117 87 202 11 34 15 16 9
-40z m-1661 -73 c-3 -5 -1 -10 4 -10 6 0 11 3 11 8 0 4 61 8 136 8 137 2 152
-3 79 -26 -83 -26 -191 -87 -246 -137 -31 -29 -62 -53 -68 -53 -6 0 -18 11
-26 24 -13 19 -15 39 -9 100 l7 76 36 6 c20 3 41 7 46 9 21 7 36 5 30 -5z
m1516 -50 c14 -8 19 -21 19 -49 0 -51 28 -129 50 -141 10 -6 29 -12 42 -14 17
-2 22 -9 20 -24 -3 -18 28 -48 39 -38 2 2 21 6 42 10 l37 7 0 -37 0 -38 20 22
c23 25 45 29 37 8 -3 -8 -9 -32 -13 -53 -8 -43 -80 -172 -101 -180 -26 -10
-276 122 -478 252 -108 70 -407 245 -417 245 -19 0 -6 16 15 17 73 5 433 3
460 -2 24 -5 37 -2 46 9 16 19 150 23 182 6z m-1816 -137 c4 -65 5 -242 2
-393 -4 -151 -7 -341 -6 -422 0 -85 -4 -148 -10 -148 -18 0 -21 32 -15 164 l6
133 -117 43 c-64 23 -118 48 -120 54 -2 6 -6 24 -10 40 -7 33 -18 35 133 -19
72 -26 107 -34 114 -27 6 6 12 75 14 159 3 120 1 153 -11 169 -11 14 -14 15
-15 4 0 -13 -2 -13 -9 -1 -12 19 -2 43 15 37 8 -3 14 -1 14 4 0 6 -4 10 -8 10
-4 0 -15 13 -25 29 -13 22 -14 30 -5 33 10 4 10 10 1 31 -7 15 -9 26 -5 26 22
-4 22 5 -3 37 -20 26 -25 42 -20 61 6 26 53 91 67 92 3 1 9 -52 13 -116z m440
-179 c22 -9 74 -28 115 -43 l75 -26 3 -215 c4 -222 -12 -628 -28 -760 -5 -41
-21 -214 -35 -385 -28 -345 -30 -367 -51 -480 -31 -177 -33 -235 -12 -299 24
-68 20 -122 -13 -194 -24 -55 -37 -156 -21 -166 13 -8 7 -27 -40 -128 -28 -60
-35 -68 -59 -68 -15 0 -41 -12 -58 -26 -32 -27 -40 -22 -17 9 11 15 11 23 -5
55 -10 20 -25 68 -33 107 -16 77 -13 90 37 142 l30 32 -29 81 -28 82 23 87
c22 84 23 98 24 611 l2 525 72 -3 c91 -5 113 6 113 57 0 21 -4 61 -10 89 -5
28 -14 91 -20 139 -20 164 -78 330 -134 382 -26 24 -26 25 -26 185 0 182 3
198 33 213 31 15 46 14 92 -3z m-834 -121 c20 -26 43 -61 52 -78 17 -34 52
-151 62 -210 9 -52 16 -205 10 -215 -3 -5 -14 -6 -25 -3 -17 4 -20 14 -20 57
0 54 -20 197 -40 280 -14 65 -72 186 -98 210 -12 11 -22 23 -22 28 0 17 46
-22 81 -69z m743 -305 c67 -116 104 -280 123 -541 4 -63 3 -68 -14 -65 -16 3
-19 19 -26 148 -10 176 -35 298 -82 395 -48 101 -49 145 -1 63z m-511 -34 c45
-15 88 -31 95 -37 8 -7 12 -48 12 -143 0 -74 -2 -134 -4 -134 -3 0 -40 11 -84
25 l-79 25 -11 52 c-11 53 -23 238 -15 238 2 0 41 -12 86 -26z m112 -337 c26
-9 40 -20 39 -31 0 -9 -1 -32 -2 -51 -2 -30 -4 -34 -19 -25 -10 5 -57 21 -105
35 l-88 26 0 48 0 48 68 -18 c37 -10 85 -24 107 -32z m3044 -30 c41 -27 101
-107 101 -134 0 -10 -55 -13 -267 -14 -148 0 -507 -1 -800 -2 -292 -1 -534 1
-538 5 -4 3 -2 22 3 42 13 45 1 47 -21 4 -14 -26 -16 -28 -11 -8 8 34 50 77
99 103 37 20 58 22 260 24 121 2 231 5 245 7 14 2 219 3 456 2 l430 -1 43 -28z
m-5022 -160 c55 -28 83 -59 83 -91 0 -16 -3 -14 -22 9 -33 43 -116 74 -209 80
-72 5 -86 3 -140 -21 -33 -15 -68 -38 -79 -51 -21 -27 -32 -19 -19 14 10 27
76 72 121 84 18 4 74 7 123 5 75 -2 99 -7 142 -29z m5126 -34 c4 -16 13 -62
22 -103 41 -189 36 -599 -10 -819 -62 -302 -89 -672 -64 -870 10 -86 64 -366
75 -395 5 -13 -1 -16 -35 -16 -39 0 -43 3 -57 35 -29 70 -95 373 -110 510 -20
176 -14 449 16 725 22 200 21 340 -2 440 -15 66 -66 168 -89 180 -13 8 -194
11 -551 11 -582 -1 -561 2 -593 -61 -18 -34 -50 -185 -60 -280 -4 -36 -1 -130
5 -210 17 -208 14 -661 -5 -855 -17 -168 -53 -367 -80 -447 -16 -47 -18 -48
-57 -48 -37 0 -40 2 -34 23 14 48 35 209 47 361 19 253 7 572 -36 946 -34 295
-36 329 -32 530 5 183 16 304 32 358 4 9 174 12 808 12 l805 0 5 -27z m-3123
-81 c0 -21 -7 -170 -17 -332 -9 -162 -16 -306 -16 -320 0 -28 -23 -298 -37
-432 -5 -48 -19 -109 -31 -137 -18 -42 -19 -56 -10 -82 17 -50 14 -65 -29
-114 -33 -38 -38 -51 -33 -75 4 -23 -1 -38 -21 -65 -15 -20 -32 -32 -38 -29
-6 4 -25 8 -42 10 -27 2 -34 -3 -45 -27 -7 -17 -14 -43 -15 -59 -4 -62 -109
-130 -227 -149 -91 -15 -189 -14 -189 2 -1 6 -2 98 -4 202 -1 116 -9 238 -20
313 -15 103 -17 149 -10 280 5 86 7 213 4 282 -6 147 -2 174 25 178 20 4 114
61 150 92 140 121 206 236 220 386 11 127 -12 114 200 114 l185 0 0 -38z
m-1687 -500 c21 -78 107 -399 156 -582 l60 -225 -22 -23 c-11 -12 -24 -19 -28
-15 -7 8 -77 242 -120 398 -12 44 -32 114 -44 155 -13 41 -25 84 -28 95 -3 11
-17 62 -31 114 -14 52 -24 97 -21 101 8 13 73 -2 78 -18z m-4613 -25 c0 -2
-10 -23 -21 -47 -17 -35 -37 -129 -39 -184 0 -5 -3 -6 -7 -2 -4 4 -12 -6 -18
-23 -8 -24 -13 -28 -25 -21 -13 9 -13 11 0 19 21 14 7 23 -24 15 -21 -5 -26
-12 -27 -38 0 -27 -1 -28 -9 -10 -13 33 -4 165 15 209 32 78 40 85 100 85 30
0 55 -1 55 -3z m4797 -51 l73 -21 0 -75 c1 -41 2 -182 4 -313 2 -132 1 -235
-3 -230 -4 4 -20 60 -35 123 -16 63 -39 149 -52 190 -12 41 -37 131 -54 200
-17 69 -34 134 -37 144 -4 16 -2 18 13 11 11 -4 52 -18 91 -29z m-213 -401
c68 -250 86 -319 83 -321 -1 -1 -62 48 -134 109 -138 114 -155 139 -116 169
56 44 92 93 103 140 7 27 16 46 20 41 5 -4 24 -66 44 -138z m776 111 c0 -13
-7 -27 -16 -30 -19 -7 -148 -6 -229 3 -50 5 -60 9 -63 26 -3 19 4 20 153 22
l155 2 0 -23z m-689 -270 c28 -99 61 -215 73 -256 40 -130 85 -293 95 -350 6
-30 20 -88 31 -129 22 -82 25 -111 10 -111 -8 0 -30 61 -30 85 0 12 -54 212
-85 315 -13 41 -28 100 -35 130 -7 30 -41 159 -75 285 -35 127 -66 246 -69
265 -14 79 34 -54 85 -234z m694 160 c8 -60 -8 -267 -31 -400 -16 -96 -19
-308 -5 -416 5 -36 8 -66 7 -67 -2 -2 -164 -5 -237 -4 l-66 1 -11 52 c-34 144
-21 380 34 656 18 89 24 143 20 180 l-6 52 144 0 145 0 6 -54z m-5506 -168
c-52 -76 -60 -115 -24 -111 11 1 26 0 34 -3 11 -4 10 -8 -5 -18 -12 -9 -59
-15 -132 -17 l-114 -4 115 112 c96 94 120 113 146 113 l30 0 -50 -72z m4245
-40 l1 -108 -150 0 c-82 -1 -171 -3 -197 -5 -26 -2 -49 -1 -52 3 -2 4 30 36
72 70 42 34 93 77 112 95 54 51 69 57 144 54 l70 -2 0 -107z m554 -142 c15 -5
22 -15 22 -34 l0 -27 -482 2 c-266 2 -493 3 -505 3 -19 0 -23 6 -23 29 0 20 6
31 17 33 35 7 949 1 971 -6z m604 -562 l37 -6 -2 -82 -2 -81 -187 -3 -188 -2
0 84 0 85 63 4 c118 6 242 7 279 1z"/>
<path d="M5080 9152 c0 -7 7 -29 15 -49 20 -48 20 -50 -14 -67 -16 -9 -31 -22
-35 -31 -7 -19 7 -12 42 18 15 14 22 16 22 7 0 -7 18 -51 40 -96 22 -46 40
-87 40 -93 0 -6 -9 -25 -20 -43 -25 -41 -25 -50 -2 -46 9 2 25 17 34 33 9 17
17 24 18 18 0 -7 5 -13 11 -13 7 0 9 11 6 28 -4 21 1 39 19 65 13 20 24 40 24
45 0 5 11 19 25 32 14 13 25 28 25 34 0 15 -59 -44 -86 -86 -13 -21 -28 -38
-32 -38 -12 0 -63 109 -78 168 -14 55 -53 137 -54 114z"/>
<path d="M4672 8929 c-18 -16 -35 -38 -37 -47 -2 -9 -6 -25 -10 -34 -4 -11 -3
-18 4 -18 6 0 11 -7 11 -16 0 -10 5 -14 15 -10 13 4 13 2 5 -14 -5 -10 -10
-23 -10 -27 0 -8 52 -43 64 -43 10 0 7 28 -4 32 -6 2 10 25 35 52 25 27 45 53
45 58 0 13 -45 9 -66 -7 -40 -30 -37 -13 6 32 25 26 37 41 27 34 -27 -21 -33
-4 -7 17 l23 19 -34 1 c-25 1 -43 -7 -67 -29z"/>
<path d="M9878 2906 c-10 -7 -18 -18 -18 -23 0 -10 -52 -27 -77 -26 -7 0 -13
-3 -13 -8 0 -5 10 -9 23 -9 13 0 26 -9 32 -22 10 -24 45 -38 45 -19 0 6 -7 11
-15 11 -8 0 -19 10 -26 21 -12 24 -10 23 45 -11 22 -13 34 -26 28 -28 -13 -4
-17 -32 -4 -32 4 0 23 -13 42 -29 32 -26 34 -30 22 -56 -11 -23 -10 -31 3 -51
8 -13 15 -34 15 -47 0 -14 7 -30 15 -37 8 -7 15 -18 15 -25 0 -7 7 -18 15 -25
12 -10 14 0 10 83 -2 53 -9 106 -15 118 -7 12 -13 40 -14 63 -6 104 -5 103
-20 83 -10 -13 -11 -28 -5 -55 14 -60 12 -68 -11 -47 -12 10 -18 25 -16 32 3
7 -1 13 -9 13 -7 0 -16 9 -20 19 -3 10 -19 24 -35 31 -17 7 -30 18 -30 25 0
20 38 48 55 41 11 -4 15 -2 13 6 -6 18 -30 20 -50 4z"/>
<path d="M5756 1958 c-2 -13 -11 -79 -20 -148 -8 -69 -23 -163 -32 -210 -11
-58 -17 -143 -18 -270 -1 -194 6 -230 43 -230 17 0 18 11 14 168 -4 137 -1
192 17 307 51 337 53 355 42 380 -14 31 -40 32 -46 3z"/>
<path d="M5847 1973 c-2 -5 -8 -53 -11 -108 -4 -55 -17 -152 -28 -215 -17 -90
-22 -158 -22 -310 -1 -198 6 -240 38 -240 11 0 15 45 19 228 4 170 10 254 26
337 28 151 38 280 21 300 -13 16 -36 20 -43 8z m19 -233 c-46 -288 -49 -314
-43 -462 5 -156 -6 -201 -19 -71 -11 118 1 313 29 473 14 80 28 165 31 190 8
75 10 77 13 20 3 -30 -3 -98 -11 -150z"/>
<path d="M5943 1972 c-5 -4 -13 -53 -17 -110 -3 -57 -13 -147 -20 -200 -26
-175 -39 -345 -32 -441 6 -96 15 -121 46 -121 17 0 18 12 13 163 -5 162 -3
188 47 547 15 105 13 148 -8 159 -10 5 -23 7 -29 3z"/>
<path d="M7560 9099 c-96 -37 -242 -111 -247 -124 -2 -6 6 -16 18 -23 19 -12
20 -11 15 6 -7 22 14 35 41 25 13 -5 15 -2 10 11 -5 14 -3 17 8 12 8 -3 15 -1
15 4 0 11 59 30 82 27 9 -2 26 -11 36 -20 11 -10 26 -15 36 -11 9 3 16 1 16
-5 0 -6 -4 -11 -10 -11 -5 0 -10 -5 -10 -10 0 -9 47 -4 59 6 5 4 -62 64 -72
64 -5 0 -4 -7 3 -15 7 -8 8 -15 2 -15 -5 0 -15 7 -22 16 -11 12 -11 18 1 29
17 17 19 16 89 -60 36 -38 46 -53 28 -42 -16 10 -28 14 -28 9 0 -5 -13 -9 -30
-9 -42 0 -47 -9 -20 -38 25 -26 42 -26 20 0 -7 9 -10 19 -5 23 4 4 22 -11 41
-32 19 -22 34 -33 34 -26 0 8 -10 24 -22 37 -12 13 -17 23 -11 23 12 0 78 -70
85 -91 3 -8 9 -11 13 -7 4 4 -3 22 -15 40 -21 31 -21 32 -1 9 12 -13 24 -21
27 -18 8 8 -58 90 -120 149 -28 26 -46 51 -42 55 8 9 153 -143 162 -169 7 -22
20 -23 28 -2 8 20 -52 110 -99 149 -36 30 -44 45 -24 45 16 0 98 -90 120 -134
l21 -38 -21 -51 c-12 -27 -19 -52 -17 -54 6 -6 63 120 71 157 10 47 -12 115
-41 129 -46 21 -143 12 -224 -20z"/>
<path d="M1 4897 c-1 -25 3 -36 10 -32 6 4 8 14 4 24 -5 14 -3 13 12 -2 17
-17 17 -19 -6 -36 -13 -10 -20 -20 -15 -23 18 -9 103 -7 109 3 4 5 15 7 26 4
12 -4 19 -2 19 6 0 7 8 5 21 -7 20 -18 21 -18 35 1 12 16 18 18 34 7 30 -19
45 -14 46 13 2 28 0 29 -27 14 -17 -9 -25 -6 -45 16 -13 14 -22 31 -19 36 4 5
1 9 -5 9 -20 0 -23 -31 -4 -46 11 -9 13 -13 7 -9 -7 3 -13 2 -13 -2 0 -5 6
-15 13 -22 10 -10 9 -11 -5 -6 -10 4 -18 13 -18 21 0 8 -7 14 -15 14 -8 0 -15
-4 -15 -10 0 -5 -5 -10 -12 -10 -6 0 -1 11 12 25 17 18 21 28 13 36 -17 17
-48 6 -48 -16 0 -11 -5 -20 -10 -19 -28 3 -55 18 -55 31 0 10 -4 11 -19 3 -14
-7 -21 -6 -24 3 -3 6 -6 -5 -6 -26z"/>
<path d="M1280 4914 c0 -8 7 -17 16 -21 8 -3 13 -11 11 -17 -14 -36 70 -61
103 -31 16 14 18 14 23 -6 8 -30 28 -13 22 19 -4 21 -2 20 7 -5 7 -21 17 -33
29 -33 11 0 19 5 19 10 0 6 -5 10 -12 10 -6 0 -3 7 8 15 19 15 19 16 0 28 -10
7 -26 20 -35 30 -19 21 -31 22 -31 2 0 -8 -4 -15 -9 -15 -5 0 -16 7 -25 15 -8
8 -18 15 -21 15 -4 0 -5 -7 -1 -15 3 -8 1 -15 -3 -15 -5 0 -11 7 -15 15 -6 17
-36 21 -36 5 0 -5 5 -10 10 -10 6 0 10 -5 10 -11 0 -6 -15 -2 -35 10 -29 17
-35 18 -35 5z"/>
<path d="M1882 4905 c-8 -16 -8 -33 -2 -49 11 -31 30 -43 30 -20 0 16 1 16 16
-2 14 -18 15 -18 8 6 l-7 25 21 -25 c16 -20 22 -22 34 -12 8 6 17 9 21 6 20
-21 147 -5 179 23 15 13 16 13 11 -6 -5 -18 -1 -21 27 -21 23 0 31 4 27 14 -5
12 -2 12 19 1 32 -16 70 -9 53 11 -8 10 -6 13 10 11 14 -1 21 -8 21 -22 0 -15
2 -17 9 -6 6 9 11 10 15 2 10 -16 26 -14 26 3 0 8 -10 18 -22 22 -13 3 -31 14
-41 22 -15 13 -20 14 -26 3 -5 -8 -17 -11 -30 -6 -11 3 -21 2 -21 -3 0 -6 -9
-8 -20 -5 -11 3 -20 11 -20 18 0 16 -28 40 -37 31 -4 -4 -1 -11 6 -15 8 -6 9
-11 3 -15 -6 -3 -14 -2 -17 4 -4 6 -15 8 -26 5 -14 -5 -17 -3 -13 9 7 17 -11
22 -21 6 -3 -6 -17 -7 -31 -4 -14 4 -31 1 -39 -6 -13 -10 -19 -10 -34 4 -17
15 -19 15 -32 -1 -8 -9 -9 -14 -3 -10 7 4 17 1 23 -7 9 -11 7 -15 -10 -19 -12
-3 -18 -10 -14 -16 3 -6 1 -11 -5 -11 -7 0 -10 9 -7 23 3 12 2 30 -1 39 -6 13
-10 14 -23 5 -8 -7 -18 -20 -22 -30 -4 -10 -12 -15 -18 -12 -8 5 -8 10 0 18
13 13 15 37 3 37 -5 0 -14 -11 -20 -25z"/>
<path d="M3600 4921 c0 -4 12 -20 26 -35 15 -14 23 -26 18 -26 -5 0 -21 14
-36 32 -14 18 -30 29 -34 25 -4 -4 -2 -13 4 -19 21 -21 13 -29 -26 -26 -31 2
-38 6 -34 20 2 10 -3 20 -12 24 -21 8 -33 -3 -19 -17 15 -15 5 -39 -16 -38
-10 0 -11 2 -3 6 20 8 14 33 -11 42 -13 5 -35 7 -50 4 -22 -4 -26 -9 -21 -29
4 -17 1 -26 -10 -30 -9 -3 -13 -10 -10 -15 3 -5 10 -7 15 -3 5 3 16 0 24 -6 8
-6 19 -9 25 -5 7 4 29 7 51 7 21 -1 39 4 39 10 0 7 4 7 13 0 7 -6 22 -9 34 -6
11 3 24 1 27 -5 9 -14 26 -14 26 -1 0 6 -7 10 -15 10 -8 0 -15 5 -15 10 0 13
17 13 25 -1 4 -5 12 -8 18 -6 7 2 20 -2 29 -10 15 -14 20 -11 52 23 20 22 36
34 36 29 0 -6 -5 -16 -11 -22 -12 -12 -4 -33 13 -33 5 0 8 7 4 15 -3 8 -1 15
4 15 6 0 10 8 10 18 0 12 5 10 18 -10 16 -26 52 -39 52 -19 0 20 -13 41 -25
41 -7 0 -18 7 -25 15 -10 12 -16 13 -27 3 -11 -9 -17 -9 -25 3 -7 11 -11 11
-15 2 -7 -18 -23 -16 -39 5 -13 16 -15 16 -30 -3 -14 -19 -16 -19 -25 -2 -10
18 -29 23 -29 8z"/>
<path d="M4920 4896 c0 -15 -6 -26 -14 -26 -22 0 -38 -24 -24 -38 8 -8 15 -7
24 6 13 16 13 16 14 0 0 -20 -5 -20 220 -18 93 1 137 5 142 13 15 24 8 27 -23
12 -29 -16 -31 -15 -36 4 -6 25 -11 25 -37 6 -11 -8 -27 -15 -35 -14 -11 0 -8
4 7 11 12 6 22 14 22 18 0 5 11 11 25 14 14 4 25 11 25 17 0 13 -39 2 -60 -16
-8 -7 -26 -15 -40 -17 -14 -1 -30 -10 -37 -18 -15 -18 -17 -6 -3 21 6 11 21
19 35 19 16 0 23 4 19 14 -9 25 -54 6 -75 -33 -11 -20 -18 -28 -15 -19 5 19
-20 33 -30 16 -4 -7 -9 -6 -15 3 -4 8 -13 14 -19 14 -6 0 -14 5 -18 11 -4 6
-17 14 -29 18 -20 6 -23 4 -23 -18z"/>
<path d="M5759 4711 c-20 -16 -22 -23 -14 -47 8 -21 22 -31 61 -44 66 -23 90
-39 105 -69 19 -41 22 -7 5 53 -18 61 -48 100 -90 116 -36 13 -40 13 -67 -9z"/>
<path d="M5773 4570 c-26 -11 -45 -43 -37 -64 7 -19 26 -26 98 -36 38 -6 65
-16 78 -29 31 -34 30 -25 -2 39 -39 77 -88 109 -137 90z"/>
<path d="M149 4543 c-9 -10 -21 -37 -28 -61 -8 -29 -30 -60 -66 -97 l-55 -55
0 -258 0 -258 39 -30 c41 -30 94 -102 106 -141 l6 -23 817 -1 c449 0 855 -2
902 -4 85 -3 1777 -14 2695 -18 270 -1 496 2 503 7 7 4 24 31 36 59 28 63 82
116 139 138 l42 17 0 262 0 262 -49 19 c-60 22 -132 90 -147 138 -6 20 -15 40
-20 45 -5 6 -997 11 -2457 13 -2343 4 -2449 3 -2463 -14z"/>
<path d="M5841 4232 c-2 -80 77 -248 153 -322 25 -25 46 -54 46 -66 0 -11 -9
-47 -20 -79 -11 -32 -20 -65 -19 -74 0 -19 6 -8 43 94 l26 69 -27 28 c-15 15
-22 28 -16 28 6 0 16 -7 23 -15 7 -8 20 -15 29 -15 15 1 87 58 79 64 -1 2 -21
13 -43 24 -59 30 -99 77 -141 165 -20 43 -39 75 -42 73 -2 -3 6 -33 18 -67 25
-66 74 -144 123 -196 26 -28 28 -33 14 -39 -21 -8 -103 60 -150 124 -40 55
-63 105 -82 182 -11 46 -13 50 -14 22z"/>
<path d="M0 3372 c0 -9 484 -12 1953 -12 1073 0 2368 -3 2877 -6 511 -4 921
-3 917 2 -10 11 -200 12 -3274 20 -1866 5 -2473 4 -2473 -4z"/>
<path d="M1955 3318 c5 -19 4 -20 -5 -6 -6 10 -22 16 -41 16 -21 -1 -27 -4
-19 -12 5 -5 10 -15 10 -20 -1 -6 -8 -2 -18 9 -20 24 -67 32 -58 9 7 -19 -3
-18 -26 3 -17 15 -20 15 -28 3 -7 -12 -12 -12 -22 -2 -6 6 -16 12 -22 12 -6 0
-5 -5 2 -12 7 -7 12 -17 12 -22 0 -6 -4 -5 -9 3 -5 7 -14 10 -20 7 -14 -9 -14
-26 0 -26 6 0 17 -6 25 -14 18 -18 175 -17 181 1 3 7 10 10 18 7 8 -3 12 -11
9 -19 -10 -25 43 -4 55 22 l12 25 19 -22 c10 -12 23 -19 28 -16 5 3 23 0 40
-6 27 -10 35 -10 47 3 12 12 14 21 6 42 -6 15 -17 27 -25 27 -13 0 -13 -4 2
-29 18 -32 14 -45 -12 -35 -13 5 -14 9 -5 21 10 11 8 18 -8 35 -12 11 -27 18
-34 16 -8 -3 -5 -11 11 -26 33 -31 22 -29 -47 6 -17 9 -22 8 -27 -3 -8 -21
-23 -18 -29 5 -3 11 -10 20 -17 20 -7 0 -9 -9 -5 -22z"/>
<path d="M739 3307 c-20 -22 -26 -57 -9 -57 6 0 10 7 10 15 0 22 17 18 23 -5
6 -24 36 -26 63 -5 18 15 17 16 -15 9 -23 -4 -31 -3 -27 5 4 6 15 11 25 11 9
0 22 5 27 10 8 8 15 6 24 -5 12 -14 11 -18 0 -25 -19 -12 -8 -22 14 -14 9 3
16 14 16 23 1 11 5 8 15 -9 12 -22 14 -23 20 -8 4 10 12 15 18 11 20 -12 47
-10 47 4 0 7 -4 13 -9 13 -5 0 -7 8 -4 19 3 10 -1 22 -8 26 -8 6 -10 4 -4 -5
8 -13 -7 -12 -47 5 -13 5 -18 2 -18 -9 0 -9 -4 -16 -10 -16 -5 0 -7 7 -4 15 4
8 1 15 -5 15 -6 0 -11 -6 -11 -12 0 -9 -3 -9 -9 1 -8 12 -12 11 -28 -4 -15
-16 -18 -16 -21 -3 -4 22 -50 19 -73 -5z"/>
<path d="M2970 3309 c1 -38 24 -61 54 -53 17 4 26 2 26 -5 0 -7 14 -10 38 -8
20 2 37 9 37 15 0 6 3 14 8 18 4 4 7 -2 7 -14 0 -23 16 -30 22 -11 3 9 9 9 25
0 28 -14 46 -14 37 1 -5 8 -2 9 9 5 21 -8 22 6 2 23 -8 7 -15 19 -15 28 0 8
-3 12 -6 9 -4 -3 -15 -2 -26 4 -28 15 -35 3 -12 -22 l19 -22 -25 13 c-14 7
-28 18 -32 24 -5 7 -12 4 -22 -9 -15 -20 -15 -19 -16 5 -1 23 -2 23 -14 8 -12
-16 -14 -16 -29 0 -13 12 -17 13 -17 3 0 -10 -3 -11 -14 -2 -11 9 -15 9 -18
-1 -4 -10 -8 -10 -21 1 -15 12 -17 11 -17 -10z"/>
<path d="M4285 3321 c3 -6 -19 -8 -57 -4 -59 5 -61 4 -47 -13 8 -11 9 -15 2
-10 -20 11 -15 -16 6 -41 23 -27 82 -31 101 -8 10 12 16 13 27 4 10 -9 17 -8
31 4 22 20 72 33 72 18 0 -11 -13 -15 -37 -12 -24 3 -13 -17 12 -21 14 -3 25
-1 25 5 0 5 7 15 15 21 13 9 13 15 3 38 -14 30 -28 37 -28 14 0 -8 -7 -16 -15
-20 -10 -4 -15 1 -15 14 0 22 -29 27 -47 9 -8 -8 -13 -8 -17 0 -4 6 -14 11
-22 11 -8 0 -13 -4 -9 -9z"/>
<path d="M6280 3315 c0 -3 5 -15 12 -28 6 -12 14 -29 18 -37 8 -17 110 -27
110 -10 0 5 14 8 33 6 17 -3 32 -5 32 -6 0 -1 15 -3 33 -5 38 -3 42 7 7 23
-24 11 -34 32 -15 32 24 0 60 -25 60 -42 0 -10 5 -18 10 -18 6 0 10 5 10 11 0
5 5 7 11 3 7 -4 10 -1 7 7 -4 13 -93 68 -110 69 -3 0 -9 -13 -13 -30 -6 -29
-7 -29 -27 -11 -20 19 -72 35 -62 20 6 -10 -46 -12 -70 -3 -9 3 -13 10 -10 15
3 5 -4 9 -15 9 -12 0 -21 -2 -21 -5z"/>
</g>
</svg>
